<svg width="63" height="65" viewBox="0 0 63 65" fill="none" xmlns="http://www.w3.org/2000/svg">
<path d="M20.3867 27.0019C21.8366 27.0019 23.0132 25.7997 23.0132 24.3185V13.8532C23.0132 9.17461 26.7389 5.36684 31.3182 5.36684C35.8975 5.36684 39.6244 9.17461 39.6244 13.8532V24.3185C39.6244 25.7997 40.7998 27.0019 42.2509 27.0019C43.7008 27.0019 44.8774 25.7997 44.8774 24.3185V13.8532C44.8787 6.2148 38.7958 0 31.3182 0C23.8432 0 17.7603 6.2148 17.7603 13.8532V24.3185C17.7603 25.7997 18.9369 27.0019 20.3867 27.0019Z" fill="#05A845"/>
<path fill-rule="evenodd" clip-rule="evenodd" d="M47.5053 20.9722H61.4467C62.1729 20.9722 62.6194 21.5545 62.4474 22.275L53.2599 60.5097C52.7031 62.6592 50.4916 64.402 48.3142 64.402H14.1699C11.9952 64.402 9.78105 62.6592 9.22686 60.5097L0.0367834 22.275C-0.135252 21.5559 0.312565 20.9722 1.03747 20.9722H15.1351V24.3185C15.1351 27.2783 17.4911 29.6853 20.3881 29.6853C23.2851 29.6853 25.6411 27.2783 25.6411 24.3185V20.9722H36.9993V24.3185C36.9993 27.2783 39.3553 29.6853 42.2523 29.6853C45.1493 29.6853 47.5053 27.2783 47.5053 24.3185V20.9722ZM36.2098 56.3701C42.6889 54.2859 47.001 47.8536 47.001 40.1936C47.001 37.5883 46.4285 34.8849 45.4076 32.6792C45.122 32.0597 44.2382 32.041 43.8896 32.6296C41.9751 35.8534 38.1462 37.0951 34.6989 36.2974C33.1445 35.9376 31.4609 35.9047 29.717 36.2977C25.6935 37.208 22.4574 40.3936 21.6282 44.335C21.487 45.0064 21.4225 45.6664 21.4106 46.3144C24.7784 43.8589 29.5554 41.7867 36.1668 41.7867C36.7085 41.7867 37.1517 42.2179 37.1517 42.7449C37.1517 43.272 36.7085 43.7032 36.1648 43.7022C21.0934 43.7022 16.1151 54.8958 15.5242 57.2615C15.334 58.0329 15.8234 58.8104 16.6169 58.9959C16.7323 59.0221 16.8482 59.0352 16.9617 59.0352C17.6296 59.0352 18.236 58.592 18.3979 57.9326C18.4133 57.8667 19.3108 54.4488 22.643 51.4584C24.5205 54.9297 28.2325 57.1163 32.2276 57.1163C33.6348 57.1163 34.9762 56.8455 36.2098 56.3701Z" fill="#05A845"/>
</svg>
